<svg width="71" height="28" viewBox="0 0 71 28" fill="none" xmlns="http://www.w3.org/2000/svg">
<path d="M19.502 0.681641C21.6175 0.572181 23.6861 1.33029 25.2305 2.78027L27.4551 4.86816C31.7213 8.87362 38.4768 8.47317 42.2393 3.99121L42.6367 3.5166C44.2272 1.62208 46.61 0.577557 49.0811 0.69043L54.0869 0.918945C59.5597 1.16913 61.7937 8.13408 57.5303 11.6494C55.9957 12.9149 55.086 14.8163 55.0859 16.8096C55.0859 19.3335 53.4176 21.5541 50.9932 22.2559L41.0527 25.1328C37.5465 26.1475 33.8254 26.154 30.3154 25.1523L19.5107 22.0684C17.3866 21.4621 15.8605 19.603 15.6807 17.4014C15.5531 15.8385 14.8479 14.3791 13.7021 13.3086L13.2256 12.8633C8.72044 8.6538 11.4772 1.09739 17.6348 0.77832L19.502 0.681641Z" fill="black" stroke="black"/>
<path d="M26.533 13.59V17H25.609V13.557C25.609 12.677 25.136 12.05 24.223 12.05C23.365 12.05 22.738 12.688 22.738 13.535V17H21.803V8.816H22.738V11.907C23.123 11.467 23.684 11.192 24.355 11.192C25.741 11.192 26.533 12.182 26.533 13.59ZM30.5504 11.192C32.1674 11.192 33.3994 12.534 33.3994 14.184C33.3994 15.812 32.1674 17.132 30.5504 17.132C28.9444 17.132 27.7014 15.812 27.7014 14.184C27.7014 12.534 28.9444 11.192 30.5504 11.192ZM30.5504 16.274C31.6064 16.274 32.4644 15.339 32.4644 14.184C32.4644 13.007 31.6064 12.05 30.5504 12.05C29.5054 12.05 28.6474 13.007 28.6474 14.184C28.6474 15.339 29.5054 16.274 30.5504 16.274ZM42.6269 13.491V17H41.6919V13.469C41.6919 12.589 41.2739 12.05 40.4049 12.05C39.6349 12.05 39.0739 12.688 39.0739 13.535V17H38.1499V13.469C38.1499 12.589 37.7099 12.05 36.8739 12.05C36.1039 12.05 35.5319 12.688 35.5319 13.535V17H34.5969V11.335H35.4989V11.951C35.8509 11.478 36.3789 11.192 37.0059 11.192C37.8089 11.192 38.4029 11.555 38.7549 12.16C39.1069 11.577 39.7119 11.192 40.5259 11.192C41.8349 11.192 42.6269 12.083 42.6269 13.491ZM48.3695 15.24H49.3595C48.9635 16.45 47.9955 17.132 46.6865 17.132C45.0585 17.132 43.7825 15.834 43.7825 14.173C43.7825 12.534 45.0585 11.192 46.6315 11.192C48.0945 11.192 49.5025 12.402 49.4915 14.415H44.7285C44.8495 15.592 45.7515 16.285 46.6865 16.285C47.4895 16.285 48.0615 15.9 48.3695 15.24ZM44.7835 13.579H48.4575C48.2265 12.655 47.4565 12.039 46.6315 12.039C45.8505 12.039 45.0255 12.611 44.7835 13.579Z" fill="white"/>
</svg>
